<svg xmlns="http://www.w3.org/2000/svg" width="337" height="70" viewBox="0 0 337 70">
  <g fill="#FEFEFE">
    <g transform="translate(-273 -238)translate(-167 -94)translate(440 331)">
      <path d="M28.8 70.6C12.7 70.6 0 57.7 0 41.9L0 6.5C0 3.4 2.4 1 5.5 1 8.5 1 11 3.4 11 6.5L11 41.9C11 51.6 19 59.6 28.8 59.6 38.6 59.6 46.5 51.6 46.5 41.9L46.5 6.8C46.5 3.8 49 1.4 52 1.4 55.1 1.4 57.5 3.8 57.5 6.8L57.5 41.9C57.5 57.7 44.7 70.6 28.8 70.6"/>
      <path d="M113.7 44.8C116.1 42.4 117.4 39.2 117.4 35.8 117.4 32.4 116.1 29.2 113.7 26.8 113 26.1 112 26.1 111.3 26.8 110.7 27.4 110.7 28.5 111.3 29.1L111.3 29.2C113.1 31 114.1 33.3 114.1 35.8 114.1 38.3 113.1 40.7 111.3 42.4 110.6 43.1 110.6 44.2 111.3 44.8 112 45.5 113.1 45.5 113.7 44.8" fill-opacity="0.8"/>
      <path d="M119.1 50.2C119.6 50.2 120.1 50 120.4 49.7 124.1 46 126.1 41.1 126.1 35.8 126.1 30.6 124.1 25.6 120.4 21.9 120 21.6 119.6 21.4 119.1 21.4 118.7 21.4 118.2 21.6 117.9 21.9 117.2 22.6 117.2 23.8 117.9 24.4 120.9 27.5 122.6 31.5 122.6 35.8 122.6 40.1 120.9 44.2 117.9 47.2 117.5 47.5 117.4 48 117.4 48.4 117.4 48.9 117.5 49.4 117.9 49.7 118.2 50 118.6 50.2 119.1 50.2" fill-opacity="0.5"/>
      <path d="M98.7 35.7L117.6 10.1C119.3 7.6 118.9 4.2 116.5 2.5 114 0.6 110.7 1.1 108.8 3.7L93.1 25.2 93.1 25.2 93 25.3 92.1 26.6 92.1 26.6 85.2 35.5 92.1 45 92.1 45 108.8 68C109.9 69.4 111.5 70.3 113.3 70.3 114.4 70.3 115.5 69.9 116.5 69.2 118.9 67.5 119.3 64 117.6 61.6L98.7 35.7Z"/>
      <g opacity="0.8">
        <path d="M90 23.8L75.3 3.7C73.6 1.1 70.1 0.6 67.7 2.5 65.2 4.2 64.7 7.6 66.4 10.1L83.1 32.8 90 23.8Z"/>
        <path d="M83.3 38.5L66.4 61.6C64.7 64 65.2 67.5 67.7 69.2 68.6 69.9 69.7 70.3 70.9 70.3 72.6 70.3 74.2 69.4 75.3 68L90 47.8 83.3 38.5Z"/>
      </g>
      <polygon points="193.6 7.1 171 7.1 171 69.6 165.3 69.6 165.3 7.1 142.7 7.1 142.7 1.7 193.6 1.7"/>
      <path d="M213 45C210.7 44.5 208.4 44.3 205.9 44.3 204.1 44.3 202.3 44.5 200.7 44.8 199 45.2 197.5 45.8 196.2 46.6 195 47.5 193.9 48.6 193.2 50 192.4 51.4 192 53.1 192 55.2 192 59 193.2 61.7 195.5 63.3 197.9 64.9 200.8 65.7 204.3 65.8L205.9 65.8C207.9 65.8 209.8 65.7 211.7 65.6 214.2 65.4 216.6 64.9 219 64.4L219 46.7C217.3 46.1 215.4 45.5 213 45L213 45ZM219 34.8C219 33 218.6 31.4 217.8 30.1 217.1 28.8 216 27.7 214.7 26.8 213.4 25.9 211.9 25.3 210.3 24.8 208.7 24.4 207 24.1 205.3 24.1 202.8 24.1 200.4 24.6 198.1 25.4 195.8 26.2 194 27.5 192.7 29.1L189 25.7C191.1 23.4 193.6 21.8 196.6 20.6 199.6 19.5 202.7 18.9 205.8 18.9 208.2 18.9 210.5 19.3 212.8 20 215 20.6 217 21.6 218.7 22.9 220.4 24.2 221.8 25.9 222.8 27.9 223.9 29.9 224.4 32.2 224.4 34.8L224.4 67.4C218.2 69.6 211.8 70.6 205.2 70.6L204 70.6C201.6 70.6 199.3 70.3 197.2 69.6 195.1 69 193.2 68 191.7 66.8 190.1 65.5 188.9 63.9 188 62 187.1 60.1 186.6 57.9 186.6 55.2 186.6 52.4 187.2 50 188.3 48.1 189.4 46.1 190.9 44.5 192.7 43.3 194.5 42 196.5 41.1 198.8 40.6 201.1 40 203.4 39.7 205.7 39.7 208.1 39.7 210.3 39.9 212.6 40.4 214.9 40.8 217 41.5 219 42.3L219 34.8Z"/>
      <path d="M251.7 70.6C246.9 70.6 243.1 69.2 240.5 66.5 237.9 63.7 236.6 59.8 236.6 54.9L236.6 1.7 241.9 1.7 241.9 54.9C241.9 58.2 242.7 60.7 244.3 62.5 245.9 64.3 248.3 65.2 251.7 65.2L251.7 70.6Z"/>
      <polygon points="264.2 69.6 258.8 69.6 258.8 1.7 264.2 1.7 264.2 46 290.4 19.9 297.2 19.9 274.9 42.4 297 69.6 290.3 69.6 271.1 46.2 264.2 53.1"/>
      <path d="M319.6 65.4C321 65.4 322.3 65.3 323.7 65 325 64.7 326.2 64.2 327.3 63.5 328.3 62.8 329.2 61.9 329.8 60.7 330.4 59.6 330.7 58.1 330.7 56.4 330.7 54.7 330.3 53.4 329.6 52.3 328.9 51.2 328 50.3 326.9 49.6 325.8 48.9 324.5 48.3 323.2 48 321.8 47.6 320.5 47.3 319.2 47.1 317.2 46.7 315.1 46.2 313.1 45.7 311 45.1 309.2 44.4 307.6 43.3 305.9 42.3 304.6 41 303.5 39.3 302.5 37.7 302 35.6 302 33.1 302 30.6 302.5 28.4 303.6 26.6 304.7 24.8 306.1 23.4 307.8 22.2 309.5 21.1 311.5 20.2 313.5 19.7 315.6 19.2 317.6 18.9 319.6 18.9 322.2 18.9 324.7 19.4 327.2 20.2 329.6 21 331.8 22.3 333.6 23.9L330.1 28C328.7 26.5 327.1 25.5 325.3 24.9 323.5 24.4 321.6 24.1 319.6 24.1 318.3 24.1 317 24.3 315.5 24.6 314.1 24.8 312.8 25.3 311.5 26 310.3 26.7 309.2 27.6 308.4 28.7 307.6 29.9 307.2 31.3 307.2 33.1 307.2 34.7 307.7 36.1 308.6 37.1 309.5 38.2 310.6 39 311.9 39.7 313.2 40.3 314.6 40.8 316.1 41.1 317.6 41.4 318.9 41.7 320.2 42 322.1 42.4 324 42.9 325.9 43.5 327.8 44.2 329.5 45 331 46.1 332.5 47.2 333.7 48.6 334.7 50.2 335.6 51.9 336 54 336 56.4 336 58.9 335.6 61 334.7 62.8 333.7 64.5 332.5 66 331 67.1 329.4 68.3 327.7 69.1 325.7 69.7 323.8 70.2 321.7 70.5 319.6 70.6L318.9 70.6C315.2 70.6 311.8 69.8 308.7 68.1 305.3 66.4 302.6 63.8 300.4 60.3L304.5 57.7C306.4 60.3 308.7 62.2 311.3 63.5 314 64.8 316.8 65.4 319.6 65.4"/>
      <path d="M134.9 35.8C134.8 28.3 131.9 21.2 126.6 15.9 126.3 15.6 125.8 15.4 125.3 15.4 124.9 15.4 124.4 15.6 124.1 15.9 123.7 16.3 123.6 16.7 123.6 17.2 123.6 17.7 123.7 18.1 124.1 18.5 128.7 23.1 131.3 29.3 131.3 35.8 131.3 42.4 128.7 48.5 124.1 53.2 123.7 53.5 123.6 54 123.6 54.4 123.6 54.9 123.7 55.4 124.1 55.7 124.7 56.4 126 56.4 126.6 55.7 131.9 50.4 134.9 43.3 134.9 35.8" fill-opacity="0.3"/>
    </g>
  </g>
</svg>
