<?xml version="1.0" encoding="UTF-8" standalone="no"?>
<!-- Created with Inkscape (http://www.inkscape.org/) -->

<svg
   xmlns:dc="http://purl.org/dc/elements/1.1/"
   xmlns:cc="http://creativecommons.org/ns#"
   xmlns:rdf="http://www.w3.org/1999/02/22-rdf-syntax-ns#"
   xmlns:svg="http://www.w3.org/2000/svg"
   xmlns="http://www.w3.org/2000/svg"
   xmlns:sodipodi="http://sodipodi.sourceforge.net/DTD/sodipodi-0.dtd"
   xmlns:inkscape="http://www.inkscape.org/namespaces/inkscape"
   width="759.03973"
   height="154.37517"
   viewBox="0 0 200.82927 40.845095"
   version="1.1"
   id="svg8"
   inkscape:version="0.92.2 (5c3e80d, 2017-08-06)"
   sodipodi:docname="logo_export.svg">
  <defs
     id="defs2" />
  <sodipodi:namedview
     id="base"
     pagecolor="#ffffff"
     bordercolor="#666666"
     borderopacity="1.0"
     inkscape:pageopacity="0.0"
     inkscape:pageshadow="2"
     inkscape:zoom="1"
     inkscape:cx="358.23878"
     inkscape:cy="150.3699"
     inkscape:document-units="mm"
     inkscape:current-layer="text817"
     showgrid="false"
     inkscape:window-width="1280"
     inkscape:window-height="756"
     inkscape:window-x="24"
     inkscape:window-y="22"
     inkscape:window-maximized="0"
     units="px"
     fit-margin-top="0"
     fit-margin-left="0"
     fit-margin-right="0"
     fit-margin-bottom="0"
     showguides="false" />
  <metadata
     id="metadata5">
    <rdf:RDF>
      <cc:Work
         rdf:about="">
        <dc:format>image/svg+xml</dc:format>
        <dc:type
           rdf:resource="http://purl.org/dc/dcmitype/StillImage" />
        <dc:title></dc:title>
      </cc:Work>
    </rdf:RDF>
  </metadata>
  <g
     inkscape:groupmode="layer"
     id="layer2"
     inkscape:label="Layer 2"
     transform="translate(0.14042208,5.4232788e-6)" />
  <g
     inkscape:label="Layer 1"
     inkscape:groupmode="layer"
     id="layer1"
     transform="translate(-1.2296584,-198.82696)"
     style="display:inline">
    <g
       aria-label="TED"
       style="font-style:normal;font-variant:normal;font-weight:normal;font-stretch:normal;font-size:35.27777863px;line-height:6.61458302px;font-family:'Helvetica Neue LT Std', sans-serif;-inkscape-font-specification:'Helvetica Neue LT Std';font-variant-ligatures:normal;font-variant-caps:normal;font-variant-numeric:normal;font-feature-settings:normal;text-align:start;letter-spacing:0px;word-spacing:0px;writing-mode:lr-tb;text-anchor:start;fill:#e62b1e;fill-opacity:1;stroke:none;stroke-width:0.26458332px;stroke-linecap:butt;stroke-linejoin:miter;stroke-opacity:1"
       id="text817">
      <path
         d="m 8.779103,203.48364 v 20.53166 h 5.538611 v -20.53166 h 7.549445 v -4.65667 H 1.2296584 v 4.65667 z"
         style="font-style:normal;font-variant:normal;font-weight:bold;font-stretch:normal;font-size:35.27777863px;font-family:'Helvetica Neue';-inkscape-font-specification:'Helvetica Neue, Bold';font-variant-ligatures:normal;font-variant-caps:normal;font-variant-numeric:normal;font-feature-settings:normal;text-align:start;writing-mode:lr-tb;text-anchor:start;fill:#e62b1e;fill-opacity:1;stroke:none;stroke-width:0.26458332px"
         id="path869" />
      <path
         d="m 23.462376,198.82697 v 25.18833 h 19.120556 v -4.65666 H 29.000987 v -6.17361 h 12.206112 v -4.30389 H 29.000987 v -5.3975 H 42.30071 v -4.65667 z"
         style="font-style:normal;font-variant:normal;font-weight:bold;font-stretch:normal;font-size:35.27777863px;font-family:'Helvetica Neue';-inkscape-font-specification:'Helvetica Neue, Bold';font-variant-ligatures:normal;font-variant-caps:normal;font-variant-numeric:normal;font-feature-settings:normal;text-align:start;writing-mode:lr-tb;text-anchor:start;fill:#e62b1e;fill-opacity:1;stroke:none;stroke-width:0.26458332px"
         id="path871" />
      <path
         d="m 49.837285,219.35864 v -15.875 h 3.951112 q 2.046111,0 3.421944,0.59972 1.411111,0.56444 2.257778,1.65806 0.846667,1.09361 1.199444,2.64583 0.388056,1.51694 0.388056,3.42194 0,2.08139 -0.529167,3.52778 -0.529166,1.44639 -1.411111,2.36361 -0.881944,0.88195 -2.010833,1.27 -1.128889,0.38806 -2.328334,0.38806 z M 44.298674,198.82697 V 224.0153 H 55.16423 q 2.892778,0 5.009444,-0.9525 2.151945,-0.98777 3.563056,-2.68111 1.446389,-1.69333 2.151945,-4.02166 0.705555,-2.32834 0.705555,-5.08 0,-3.13973 -0.881944,-5.46806 -0.846667,-2.32833 -2.398889,-3.88055 -1.516945,-1.55223 -3.633611,-2.32834 -2.081389,-0.77611 -4.515556,-0.77611 z"
         style="font-style:normal;font-variant:normal;font-weight:bold;font-stretch:normal;font-size:35.27777863px;font-family:'Helvetica Neue';-inkscape-font-specification:'Helvetica Neue, Bold';font-variant-ligatures:normal;font-variant-caps:normal;font-variant-numeric:normal;font-feature-settings:normal;text-align:start;writing-mode:lr-tb;text-anchor:start;fill:#e62b1e;fill-opacity:1;stroke:none;stroke-width:0.26458332px"
         id="path873" />
    </g>
    <g
       aria-label="x"
       style="font-style:normal;font-variant:normal;font-weight:bold;font-stretch:normal;font-size:35.27777863px;line-height:6.61458302px;font-family:'Helvetica Neue';-inkscape-font-specification:'Helvetica Neue, Bold';font-variant-ligatures:normal;font-variant-caps:normal;font-variant-numeric:normal;font-feature-settings:normal;text-align:start;letter-spacing:0px;word-spacing:0px;writing-mode:lr-tb;text-anchor:start;fill:#ff2b06;fill-opacity:1;stroke:none;stroke-width:0.26458332px;stroke-linecap:butt;stroke-linejoin:miter;stroke-opacity:1"
       id="text821">
      <path
         d="m 74.892012,207.47003 -6.561667,9.59555 h 5.609167 l 3.81,-5.75028 3.81,5.75028 h 5.715 l -6.738055,-9.70139 5.997222,-8.53722 h -5.538611 l -3.175,4.7625 -3.210278,-4.7625 h -5.715 z"
         style="font-style:normal;font-variant:normal;font-weight:bold;font-stretch:normal;font-size:35.27777863px;font-family:'Helvetica Neue';-inkscape-font-specification:'Helvetica Neue, Bold';font-variant-ligatures:normal;font-variant-caps:normal;font-variant-numeric:normal;font-feature-settings:normal;text-align:start;writing-mode:lr-tb;text-anchor:start;fill:#e62b1e;fill-opacity:1;stroke-width:0.26458332px"
         id="path876" />
    </g>
    <g
       aria-label="Oxford"
       style="font-style:normal;font-variant:normal;font-weight:normal;font-stretch:normal;font-size:10.58333302px;line-height:6.61458302px;font-family:'Helvetica Neue LT Std', sans-serif;-inkscape-font-specification:'Helvetica Neue LT Std';font-variant-ligatures:normal;font-variant-caps:normal;font-variant-numeric:normal;font-feature-settings:normal;text-align:start;letter-spacing:0px;word-spacing:0px;writing-mode:lr-tb;text-anchor:start;fill:#ffffff;fill-opacity:1;stroke:none;stroke-width:0.26458332px;stroke-linecap:butt;stroke-linejoin:miter;stroke-opacity:1"
       id="text825">
      <path
         d="m 101.52945,212.02085 q 0,-1.905 0.49388,-3.73944 0.49389,-1.86972 1.55223,-3.35139 1.05833,-1.48167 2.71639,-2.36361 1.65805,-0.91722 3.95111,-0.91722 2.29305,0 3.95111,0.91722 1.65805,0.88194 2.71639,2.36361 1.05833,1.48167 1.55222,3.35139 0.49389,1.83444 0.49389,3.73944 0,1.905 -0.49389,3.77473 -0.49389,1.83444 -1.55222,3.31611 -1.05834,1.48166 -2.71639,2.39889 -1.65806,0.88194 -3.95111,0.88194 -2.29306,0 -3.95111,-0.88194 -1.65806,-0.91723 -2.71639,-2.39889 -1.05834,-1.48167 -1.55223,-3.31611 -0.49388,-1.86973 -0.49388,-3.77473 z m -3.351393,0 q 0,2.57528 0.740833,4.97417 0.776112,2.36361 2.29306,4.19806 1.51694,1.83444 3.77472,2.92805 2.25778,1.05834 5.25639,1.05834 2.99861,0 5.25639,-1.05834 2.25777,-1.09361 3.77472,-2.92805 1.51694,-1.83445 2.25778,-4.19806 0.77611,-2.39889 0.77611,-4.97417 0,-2.57527 -0.77611,-4.93889 -0.74084,-2.39888 -2.25778,-4.23333 -1.51695,-1.83444 -3.77472,-2.92805 -2.25778,-1.09362 -5.25639,-1.09362 -2.99861,0 -5.25639,1.09362 -2.25778,1.09361 -3.77472,2.92805 -1.516948,1.83445 -2.29306,4.23333 -0.740833,2.36362 -0.740833,4.93889 z"
         style="font-style:normal;font-variant:normal;font-weight:normal;font-stretch:normal;font-size:35.27777863px;font-family:'Helvetica Neue';-inkscape-font-specification:'Helvetica Neue, Normal';font-variant-ligatures:normal;font-variant-caps:normal;font-variant-numeric:normal;font-feature-settings:normal;text-align:start;writing-mode:lr-tb;text-anchor:start;fill:#ffffff;stroke-width:0.26458332px"
         id="path879" />
      <path
         d="m 130.43173,215.01946 -6.84389,9.59556 h 3.63361 l 5.08001,-7.54944 5.08,7.54944 h 3.84527 l -7.05555,-9.8425 6.27944,-8.39611 h -3.59833 l -4.55083,6.38528 -4.37445,-6.38528 h -3.84528 z"
         style="font-style:normal;font-variant:normal;font-weight:normal;font-stretch:normal;font-size:35.27777863px;font-family:'Helvetica Neue';-inkscape-font-specification:'Helvetica Neue, Normal';font-variant-ligatures:normal;font-variant-caps:normal;font-variant-numeric:normal;font-feature-settings:normal;text-align:start;writing-mode:lr-tb;text-anchor:start;fill:#ffffff;stroke-width:0.26458332px"
         id="path881" />
      <path
         d="m 145.58185,209.02224 v 15.59278 h 2.99861 v -15.59278 h 3.52778 v -2.64583 h -3.52778 v -2.54 q 0,-1.19945 0.59973,-1.62278 0.59972,-0.42333 1.69333,-0.42333 0.38805,0 0.84667,0.0705 0.45861,0.0353 0.84666,0.17639 v -2.61055 q -0.42333,-0.14111 -0.98778,-0.21167 -0.52916,-0.0706 -0.9525,-0.0706 -2.46944,0 -3.77472,1.16417 -1.27,1.12889 -1.27,3.35139 v 2.71639 h -3.06917 v 2.64583 z"
         style="font-style:normal;font-variant:normal;font-weight:normal;font-stretch:normal;font-size:35.27777863px;font-family:'Helvetica Neue';-inkscape-font-specification:'Helvetica Neue, Normal';font-variant-ligatures:normal;font-variant-caps:normal;font-variant-numeric:normal;font-feature-settings:normal;text-align:start;writing-mode:lr-tb;text-anchor:start;fill:#ffffff;stroke-width:0.26458332px"
         id="path883" />
      <path
         d="m 157.00744,215.51335 q 0,-1.65805 0.42334,-2.92805 0.45861,-1.30528 1.23472,-2.18722 0.77611,-0.88195 1.79917,-1.34056 1.05833,-0.45861 2.2225,-0.45861 1.16416,0 2.18722,0.45861 1.05833,0.45861 1.83444,1.34056 0.77611,0.88194 1.19945,2.18722 0.45861,1.27 0.45861,2.92805 0,1.65806 -0.45861,2.96334 -0.42334,1.27 -1.19945,2.15194 -0.77611,0.84667 -1.83444,1.30528 -1.02306,0.45861 -2.18722,0.45861 -1.16417,0 -2.2225,-0.45861 -1.02306,-0.45861 -1.79917,-1.30528 -0.77611,-0.88194 -1.23472,-2.15194 -0.42334,-1.30528 -0.42334,-2.96334 z m -3.175,0 q 0,2.01084 0.56445,3.73945 0.56444,1.72861 1.69333,3.03389 1.12889,1.27 2.78695,2.01083 1.65805,0.70556 3.81,0.70556 2.18722,0 3.81,-0.70556 1.65805,-0.74083 2.78694,-2.01083 1.12889,-1.30528 1.69333,-3.03389 0.56445,-1.72861 0.56445,-3.73945 0,-2.01083 -0.56445,-3.73944 -0.56444,-1.76389 -1.69333,-3.03389 -1.12889,-1.30528 -2.78694,-2.04611 -1.62278,-0.74083 -3.81,-0.74083 -2.15195,0 -3.81,0.74083 -1.65806,0.74083 -2.78695,2.04611 -1.12889,1.27 -1.69333,3.03389 -0.56445,1.72861 -0.56445,3.73944 z"
         style="font-style:normal;font-variant:normal;font-weight:normal;font-stretch:normal;font-size:35.27777863px;font-family:'Helvetica Neue';-inkscape-font-specification:'Helvetica Neue, Normal';font-variant-ligatures:normal;font-variant-caps:normal;font-variant-numeric:normal;font-feature-settings:normal;text-align:start;writing-mode:lr-tb;text-anchor:start;fill:#ffffff;stroke-width:0.26458332px"
         id="path885" />
      <path
         d="m 174.56155,206.37641 v 18.23861 h 2.99861 v -8.11389 q 0,-1.76389 0.35278,-3.10444 0.35278,-1.37584 1.12889,-2.32834 0.77611,-0.9525 2.04611,-1.44639 1.27,-0.49388 3.06917,-0.49388 v -3.175 q -2.43417,-0.0706 -4.02167,0.98777 -1.5875,1.05834 -2.68111,3.28084 h -0.0706 v -3.84528 z"
         style="font-style:normal;font-variant:normal;font-weight:normal;font-stretch:normal;font-size:35.27777863px;font-family:'Helvetica Neue';-inkscape-font-specification:'Helvetica Neue, Normal';font-variant-ligatures:normal;font-variant-caps:normal;font-variant-numeric:normal;font-feature-settings:normal;text-align:start;writing-mode:lr-tb;text-anchor:start;fill:#ffffff;stroke-width:0.26458332px"
         id="path887" />
      <path
         d="m 187.94781,215.65446 q 0,-1.34055 0.28222,-2.61055 0.28222,-1.27 0.91722,-2.25778 0.635,-0.98778 1.69334,-1.5875 1.05833,-0.59972 2.57527,-0.59972 1.55223,0 2.64584,0.59972 1.09361,0.56445 1.76389,1.51695 0.70555,0.9525 1.02305,2.2225 0.3175,1.23472 0.3175,2.57527 0,1.27 -0.3175,2.50473 -0.28222,1.23472 -0.9525,2.2225 -0.67028,0.9525 -1.72861,1.55222 -1.05833,0.59972 -2.57528,0.59972 -1.44639,0 -2.54,-0.56444 -1.05833,-0.56445 -1.76389,-1.51695 -0.67027,-0.9525 -1.02305,-2.15194 -0.3175,-1.23472 -0.3175,-2.50473 z m 14.11111,8.96056 v -25.18833 h -2.99861 v 9.38389 h -0.0706 q -0.49389,-0.81139 -1.23472,-1.34056 -0.70556,-0.56444 -1.51694,-0.88194 -0.81139,-0.35278 -1.62278,-0.49389 -0.81139,-0.14111 -1.51695,-0.14111 -2.08139,0 -3.66889,0.77611 -1.55222,0.74083 -2.61055,2.04611 -1.02306,1.27 -1.55222,2.99861 -0.49389,1.72861 -0.49389,3.66889 0,1.94028 0.52916,3.66889 0.52917,1.72861 1.55223,3.03389 1.05833,1.30527 2.61055,2.08139 1.5875,0.77611 3.70417,0.77611 1.905,0 3.4925,-0.67028 1.5875,-0.67028 2.32833,-2.18722 h 0.0706 v 2.46944 z"
         style="font-style:normal;font-variant:normal;font-weight:normal;font-stretch:normal;font-size:35.27777863px;font-family:'Helvetica Neue';-inkscape-font-specification:'Helvetica Neue, Normal';font-variant-ligatures:normal;font-variant-caps:normal;font-variant-numeric:normal;font-feature-settings:normal;text-align:start;writing-mode:lr-tb;text-anchor:start;fill:#ffffff;stroke-width:0.26458332px"
         id="path889" />
    </g>
    <g
       aria-label="x = independently organised TED event"
       style="font-style:normal;font-variant:normal;font-weight:normal;font-stretch:normal;font-size:10.58333302px;line-height:6.61458302px;font-family:'Helvetica Neue LT Std', sans-serif;-inkscape-font-specification:'Helvetica Neue LT Std';font-variant-ligatures:normal;font-variant-caps:normal;font-variant-numeric:normal;font-feature-settings:normal;text-align:start;letter-spacing:0px;word-spacing:0px;writing-mode:lr-tb;text-anchor:start;fill:#000000;fill-opacity:1;stroke:none;stroke-width:0.26458332px;stroke-linecap:butt;stroke-linejoin:miter;stroke-opacity:1"
       id="text829">
      <path
         d="m 10.976382,234.58148 -2.0531663,2.87866 h 1.0900833 l 1.524,-2.26483 1.524,2.26483 h 1.153583 l -2.116666,-2.95275 1.883833,-2.51883 h -1.0795 l -1.36525,1.91558 -1.312333,-1.91558 H 9.0713824 Z"
         style="font-style:normal;font-variant:normal;font-weight:normal;font-stretch:normal;font-size:10.58333302px;font-family:'Helvetica Neue';-inkscape-font-specification:'Helvetica Neue, Normal';font-variant-ligatures:normal;font-variant-caps:normal;font-variant-numeric:normal;font-feature-settings:normal;text-align:start;writing-mode:lr-tb;text-anchor:start;fill:#e62b1e;fill-opacity:1"
         id="path892" />
      <path
         d="m 17.748889,235.49164 v 0.71967 h 5.333999 v -0.71967 z m 5.333999,-1.41816 v -0.71967 h -5.333999 v 0.71967 z"
         style="font-style:normal;font-variant:normal;font-weight:normal;font-stretch:normal;font-size:10.58333302px;font-family:'Helvetica Neue';-inkscape-font-specification:'Helvetica Neue, Normal';font-variant-ligatures:normal;font-variant-caps:normal;font-variant-numeric:normal;font-feature-settings:normal;text-align:start;writing-mode:lr-tb;text-anchor:start;fill:#ffffff"
         id="path894" />
      <path
         d="m 28.151809,231.00431 v -1.10067 h -0.899584 v 1.10067 z m -0.899584,0.98425 v 5.47158 h 0.899584 v -5.47158 z"
         style="font-style:normal;font-variant:normal;font-weight:normal;font-stretch:normal;font-size:10.58333302px;font-family:'Helvetica Neue';-inkscape-font-specification:'Helvetica Neue, Normal';font-variant-ligatures:normal;font-variant-caps:normal;font-variant-numeric:normal;font-feature-settings:normal;text-align:start;writing-mode:lr-tb;text-anchor:start;fill:#ffffff"
         id="path896" />
      <path
         d="m 29.555754,231.98856 v 5.47158 h 0.899583 v -3.09033 q 0,-0.37042 0.09525,-0.67733 0.105834,-0.3175 0.306917,-0.55034 0.201083,-0.23283 0.497417,-0.35983 0.306916,-0.127 0.719666,-0.127 0.518584,0 0.814917,0.29633 0.296333,0.29634 0.296333,0.80434 v 3.70416 h 0.899584 v -3.59833 q 0,-0.4445 -0.09525,-0.80433 -0.08467,-0.37042 -0.306917,-0.635 -0.22225,-0.26459 -0.582083,-0.41275 -0.359834,-0.14817 -0.899584,-0.14817 -1.217083,0 -1.778,0.99483 h -0.02117 v -0.86783 z"
         style="font-style:normal;font-variant:normal;font-weight:normal;font-stretch:normal;font-size:10.58333302px;font-family:'Helvetica Neue';-inkscape-font-specification:'Helvetica Neue, Normal';font-variant-ligatures:normal;font-variant-caps:normal;font-variant-numeric:normal;font-feature-settings:normal;text-align:start;writing-mode:lr-tb;text-anchor:start;fill:#ffffff"
         id="path898" />
      <path
         d="m 36.103034,234.77198 q 0,-0.40217 0.08467,-0.78317 0.08467,-0.381 0.275166,-0.67733 0.1905,-0.29634 0.508,-0.47625 0.3175,-0.17992 0.772584,-0.17992 0.465666,0 0.79375,0.17992 0.328083,0.16933 0.529166,0.45508 0.211667,0.28575 0.306917,0.66675 0.09525,0.37042 0.09525,0.77258 0,0.381 -0.09525,0.75142 -0.08467,0.37042 -0.28575,0.66675 -0.201083,0.28575 -0.518583,0.46567 -0.3175,0.17991 -0.772584,0.17991 -0.433916,0 -0.762,-0.16933 -0.3175,-0.16933 -0.529166,-0.45508 -0.201084,-0.28575 -0.306917,-0.64559 -0.09525,-0.37041 -0.09525,-0.75141 z m 4.233333,2.68816 v -7.5565 h -0.899583 v 2.81517 h -0.02117 q -0.148166,-0.24342 -0.370416,-0.40217 -0.211667,-0.16933 -0.455084,-0.26458 -0.243416,-0.10583 -0.486833,-0.14817 -0.243417,-0.0423 -0.455083,-0.0423 -0.624417,0 -1.100667,0.23283 -0.465667,0.22225 -0.783167,0.61384 -0.306916,0.381 -0.465666,0.89958 -0.148167,0.51858 -0.148167,1.10067 0,0.58208 0.15875,1.10066 0.15875,0.51859 0.465667,0.91017 0.3175,0.39158 0.783166,0.62442 0.47625,0.23283 1.11125,0.23283 0.5715,0 1.04775,-0.20108 0.47625,-0.20109 0.6985,-0.65617 h 0.02117 v 0.74083 z"
         style="font-style:normal;font-variant:normal;font-weight:normal;font-stretch:normal;font-size:10.58333302px;font-family:'Helvetica Neue';-inkscape-font-specification:'Helvetica Neue, Normal';font-variant-ligatures:normal;font-variant-caps:normal;font-variant-numeric:normal;font-feature-settings:normal;text-align:start;writing-mode:lr-tb;text-anchor:start;fill:#ffffff"
         id="path900" />
      <path
         d="m 45.530138,234.20048 h -3.14325 q 0.02117,-0.3175 0.137583,-0.59267 0.116417,-0.28575 0.3175,-0.49742 0.201083,-0.21166 0.47625,-0.32808 0.28575,-0.127 0.635,-0.127 0.338667,0 0.613833,0.127 0.28575,0.11642 0.486834,0.32808 0.211666,0.20109 0.328083,0.48684 0.127,0.28575 0.148167,0.60325 z m 0.867833,1.524 h -0.889 q -0.116417,0.53975 -0.486833,0.80433 -0.359834,0.26458 -0.931334,0.26458 -0.4445,0 -0.772583,-0.14816 -0.328083,-0.14817 -0.53975,-0.39159 -0.211667,-0.254 -0.306917,-0.5715 -0.09525,-0.32808 -0.08467,-0.68791 h 4.095749 q 0.02117,-0.49742 -0.09525,-1.04775 -0.105833,-0.55034 -0.402166,-1.016 -0.28575,-0.46567 -0.772583,-0.762 -0.47625,-0.30692 -1.2065,-0.30692 -0.560917,0 -1.037167,0.21167 -0.465667,0.21166 -0.814917,0.59266 -0.338666,0.381 -0.529166,0.89959 -0.1905,0.51858 -0.1905,1.143 0.02117,0.62441 0.179916,1.15358 0.169334,0.52917 0.497417,0.91017 0.328083,0.381 0.804333,0.59266 0.486834,0.21167 1.143,0.21167 0.931334,0 1.545167,-0.46567 0.613833,-0.46566 0.79375,-1.38641 z"
         style="font-style:normal;font-variant:normal;font-weight:normal;font-stretch:normal;font-size:10.58333302px;font-family:'Helvetica Neue';-inkscape-font-specification:'Helvetica Neue, Normal';font-variant-ligatures:normal;font-variant-caps:normal;font-variant-numeric:normal;font-feature-settings:normal;text-align:start;writing-mode:lr-tb;text-anchor:start;fill:#ffffff"
         id="path902" />
      <path
         d="m 47.446877,231.98856 v 7.5565 h 0.899584 v -2.81517 h 0.02117 q 0.148167,0.24342 0.359834,0.41275 0.22225,0.15875 0.465666,0.254 0.243417,0.0953 0.486834,0.13759 0.253999,0.0423 0.455083,0.0423 0.624416,0 1.090083,-0.22225 0.47625,-0.22225 0.783167,-0.60325 0.3175,-0.39158 0.465666,-0.91017 0.15875,-0.51858 0.15875,-1.10066 0,-0.58209 -0.15875,-1.10067 -0.15875,-0.51858 -0.47625,-0.91017 -0.306916,-0.40216 -0.783166,-0.635 -0.465667,-0.23283 -1.100667,-0.23283 -0.5715,0 -1.04775,0.21167 -0.47625,0.20108 -0.6985,0.65616 h -0.02117 v -0.74083 z m 4.233333,2.68817 q 0,0.40216 -0.08467,0.78316 -0.08467,0.381 -0.275167,0.67734 -0.1905,0.29633 -0.508,0.47625 -0.306917,0.17991 -0.772583,0.17991 -0.465667,0 -0.79375,-0.16933 -0.328083,-0.17992 -0.53975,-0.46567 -0.201083,-0.28575 -0.296333,-0.65616 -0.09525,-0.381 -0.09525,-0.78317 0,-0.381 0.08467,-0.75142 0.09525,-0.37041 0.296334,-0.65616 0.201083,-0.29634 0.518583,-0.47625 0.3175,-0.17992 0.772583,-0.17992 0.433917,0 0.751417,0.16933 0.328083,0.16934 0.529166,0.45509 0.211667,0.28575 0.306917,0.65616 0.105833,0.35984 0.105833,0.74084 z"
         style="font-style:normal;font-variant:normal;font-weight:normal;font-stretch:normal;font-size:10.58333302px;font-family:'Helvetica Neue';-inkscape-font-specification:'Helvetica Neue, Normal';font-variant-ligatures:normal;font-variant-caps:normal;font-variant-numeric:normal;font-feature-settings:normal;text-align:start;writing-mode:lr-tb;text-anchor:start;fill:#ffffff"
         id="path904" />
      <path
         d="m 57.498399,234.20048 h -3.14325 q 0.02117,-0.3175 0.137584,-0.59267 0.116416,-0.28575 0.3175,-0.49742 0.201083,-0.21166 0.47625,-0.32808 0.28575,-0.127 0.635,-0.127 0.338666,0 0.613833,0.127 0.28575,0.11642 0.486833,0.32808 0.211667,0.20109 0.328084,0.48684 0.127,0.28575 0.148166,0.60325 z m 0.867834,1.524 h -0.889 q -0.116417,0.53975 -0.486834,0.80433 -0.359833,0.26458 -0.931333,0.26458 -0.4445,0 -0.772583,-0.14816 -0.328084,-0.14817 -0.53975,-0.39159 -0.211667,-0.254 -0.306917,-0.5715 -0.09525,-0.32808 -0.08467,-0.68791 h 4.09575 q 0.02117,-0.49742 -0.09525,-1.04775 -0.105833,-0.55034 -0.402166,-1.016 -0.28575,-0.46567 -0.772584,-0.762 -0.47625,-0.30692 -1.2065,-0.30692 -0.560916,0 -1.037166,0.21167 -0.465667,0.21166 -0.814917,0.59266 -0.338667,0.381 -0.529167,0.89959 -0.1905,0.51858 -0.1905,1.143 0.02117,0.62441 0.179917,1.15358 0.169333,0.52917 0.497417,0.91017 0.328083,0.381 0.804333,0.59266 0.486833,0.21167 1.143,0.21167 0.931333,0 1.545167,-0.46567 0.613833,-0.46566 0.79375,-1.38641 z"
         style="font-style:normal;font-variant:normal;font-weight:normal;font-stretch:normal;font-size:10.58333302px;font-family:'Helvetica Neue';-inkscape-font-specification:'Helvetica Neue, Normal';font-variant-ligatures:normal;font-variant-caps:normal;font-variant-numeric:normal;font-feature-settings:normal;text-align:start;writing-mode:lr-tb;text-anchor:start;fill:#ffffff"
         id="path906" />
      <path
         d="m 59.383389,231.98856 v 5.47158 h 0.899583 v -3.09033 q 0,-0.37042 0.09525,-0.67733 0.105834,-0.3175 0.306917,-0.55034 0.201083,-0.23283 0.497417,-0.35983 0.306916,-0.127 0.719666,-0.127 0.518584,0 0.814917,0.29633 0.296333,0.29634 0.296333,0.80434 v 3.70416 h 0.899583 v -3.59833 q 0,-0.4445 -0.09525,-0.80433 -0.08467,-0.37042 -0.306916,-0.635 -0.22225,-0.26459 -0.582083,-0.41275 -0.359834,-0.14817 -0.899584,-0.14817 -1.217083,0 -1.778,0.99483 h -0.02117 v -0.86783 z"
         style="font-style:normal;font-variant:normal;font-weight:normal;font-stretch:normal;font-size:10.58333302px;font-family:'Helvetica Neue';-inkscape-font-specification:'Helvetica Neue, Normal';font-variant-ligatures:normal;font-variant-caps:normal;font-variant-numeric:normal;font-feature-settings:normal;text-align:start;writing-mode:lr-tb;text-anchor:start;fill:#ffffff"
         id="path908" />
      <path
         d="m 65.930669,234.77198 q 0,-0.40217 0.08467,-0.78317 0.08467,-0.381 0.275166,-0.67733 0.1905,-0.29634 0.508,-0.47625 0.3175,-0.17992 0.772583,-0.17992 0.465667,0 0.79375,0.17992 0.328084,0.16933 0.529167,0.45508 0.211667,0.28575 0.306917,0.66675 0.09525,0.37042 0.09525,0.77258 0,0.381 -0.09525,0.75142 -0.08467,0.37042 -0.28575,0.66675 -0.201084,0.28575 -0.518584,0.46567 -0.3175,0.17991 -0.772583,0.17991 -0.433916,0 -0.762,-0.16933 -0.3175,-0.16933 -0.529166,-0.45508 -0.201084,-0.28575 -0.306917,-0.64559 -0.09525,-0.37041 -0.09525,-0.75141 z m 4.233333,2.68816 v -7.5565 h -0.899583 v 2.81517 h -0.02117 q -0.148167,-0.24342 -0.370417,-0.40217 -0.211666,-0.16933 -0.455083,-0.26458 -0.243417,-0.10583 -0.486833,-0.14817 -0.243417,-0.0423 -0.455083,-0.0423 -0.624417,0 -1.100667,0.23283 -0.465667,0.22225 -0.783167,0.61384 -0.306916,0.381 -0.465666,0.89958 -0.148167,0.51858 -0.148167,1.10067 0,0.58208 0.15875,1.10066 0.15875,0.51859 0.465667,0.91017 0.3175,0.39158 0.783166,0.62442 0.47625,0.23283 1.11125,0.23283 0.5715,0 1.04775,-0.20108 0.47625,-0.20109 0.6985,-0.65617 h 0.02117 v 0.74083 z"
         style="font-style:normal;font-variant:normal;font-weight:normal;font-stretch:normal;font-size:10.58333302px;font-family:'Helvetica Neue';-inkscape-font-specification:'Helvetica Neue, Normal';font-variant-ligatures:normal;font-variant-caps:normal;font-variant-numeric:normal;font-feature-settings:normal;text-align:start;writing-mode:lr-tb;text-anchor:start;fill:#ffffff"
         id="path910" />
      <path
         d="m 75.357774,234.20048 h -3.14325 q 0.02117,-0.3175 0.137584,-0.59267 0.116416,-0.28575 0.3175,-0.49742 0.201083,-0.21166 0.47625,-0.32808 0.28575,-0.127 0.635,-0.127 0.338666,0 0.613833,0.127 0.28575,0.11642 0.486833,0.32808 0.211667,0.20109 0.328084,0.48684 0.127,0.28575 0.148166,0.60325 z m 0.867834,1.524 h -0.889 q -0.116417,0.53975 -0.486834,0.80433 -0.359833,0.26458 -0.931333,0.26458 -0.4445,0 -0.772583,-0.14816 -0.328084,-0.14817 -0.53975,-0.39159 -0.211667,-0.254 -0.306917,-0.5715 -0.09525,-0.32808 -0.08467,-0.68791 h 4.09575 q 0.02117,-0.49742 -0.09525,-1.04775 -0.105833,-0.55034 -0.402166,-1.016 -0.28575,-0.46567 -0.772584,-0.762 -0.47625,-0.30692 -1.2065,-0.30692 -0.560916,0 -1.037166,0.21167 -0.465667,0.21166 -0.814917,0.59266 -0.338667,0.381 -0.529167,0.89959 -0.1905,0.51858 -0.1905,1.143 0.02117,0.62441 0.179917,1.15358 0.169333,0.52917 0.497417,0.91017 0.328083,0.381 0.804333,0.59266 0.486833,0.21167 1.143,0.21167 0.931333,0 1.545167,-0.46567 0.613833,-0.46566 0.79375,-1.38641 z"
         style="font-style:normal;font-variant:normal;font-weight:normal;font-stretch:normal;font-size:10.58333302px;font-family:'Helvetica Neue';-inkscape-font-specification:'Helvetica Neue, Normal';font-variant-ligatures:normal;font-variant-caps:normal;font-variant-numeric:normal;font-feature-settings:normal;text-align:start;writing-mode:lr-tb;text-anchor:start;fill:#ffffff"
         id="path912" />
      <path
         d="m 77.242764,231.98856 v 5.47158 h 0.899583 v -3.09033 q 0,-0.37042 0.09525,-0.67733 0.105834,-0.3175 0.306917,-0.55034 0.201083,-0.23283 0.497417,-0.35983 0.306916,-0.127 0.719666,-0.127 0.518584,0 0.814917,0.29633 0.296333,0.29634 0.296333,0.80434 v 3.70416 h 0.899583 v -3.59833 q 0,-0.4445 -0.09525,-0.80433 -0.08467,-0.37042 -0.306916,-0.635 -0.22225,-0.26459 -0.582083,-0.41275 -0.359834,-0.14817 -0.899584,-0.14817 -1.217083,0 -1.778,0.99483 h -0.02117 v -0.86783 z"
         style="font-style:normal;font-variant:normal;font-weight:normal;font-stretch:normal;font-size:10.58333302px;font-family:'Helvetica Neue';-inkscape-font-specification:'Helvetica Neue, Normal';font-variant-ligatures:normal;font-variant-caps:normal;font-variant-numeric:normal;font-feature-settings:normal;text-align:start;writing-mode:lr-tb;text-anchor:start;fill:#ffffff"
         id="path914" />
      <path
         d="m 84.382711,231.98856 v -1.64042 h -0.899584 v 1.64042 h -0.931333 v 0.79375 h 0.931333 v 3.48192 q 0,0.381 0.07408,0.61383 0.07408,0.23283 0.22225,0.35983 0.15875,0.127 0.402166,0.17992 0.254,0.0423 0.60325,0.0423 h 0.687917 v -0.79375 h -0.41275 q -0.211667,0 -0.34925,-0.0106 -0.127,-0.0212 -0.201083,-0.0741 -0.07408,-0.0529 -0.105834,-0.14817 -0.02117,-0.0952 -0.02117,-0.254 v -3.39725 h 1.090083 v -0.79375 z"
         style="font-style:normal;font-variant:normal;font-weight:normal;font-stretch:normal;font-size:10.58333302px;font-family:'Helvetica Neue';-inkscape-font-specification:'Helvetica Neue, Normal';font-variant-ligatures:normal;font-variant-caps:normal;font-variant-numeric:normal;font-feature-settings:normal;text-align:start;writing-mode:lr-tb;text-anchor:start;fill:#ffffff"
         id="path916" />
      <path
         d="m 86.514759,229.90364 v 7.5565 h 0.899583 v -7.5565 z"
         style="font-style:normal;font-variant:normal;font-weight:normal;font-stretch:normal;font-size:10.58333302px;font-family:'Helvetica Neue';-inkscape-font-specification:'Helvetica Neue, Normal';font-variant-ligatures:normal;font-variant-caps:normal;font-variant-numeric:normal;font-feature-settings:normal;text-align:start;writing-mode:lr-tb;text-anchor:start;fill:#ffffff"
         id="path918" />
      <path
         d="m 90.966704,238.19039 q -0.15875,0.40217 -0.3175,0.67734 -0.148167,0.27516 -0.338667,0.4445 -0.179916,0.17991 -0.41275,0.254 -0.22225,0.0847 -0.518583,0.0847 -0.15875,0 -0.3175,-0.0212 -0.15875,-0.0212 -0.306917,-0.0741 v -0.8255 q 0.116417,0.0529 0.264584,0.0847 0.15875,0.0423 0.264583,0.0423 0.275167,0 0.455083,-0.13758 0.1905,-0.127 0.28575,-0.37042 l 0.370417,-0.92075 -2.169583,-5.43983 h 1.016 l 1.598083,4.47675 h 0.02117 l 1.534583,-4.47675 h 0.9525 z"
         style="font-style:normal;font-variant:normal;font-weight:normal;font-stretch:normal;font-size:10.58333302px;font-family:'Helvetica Neue';-inkscape-font-specification:'Helvetica Neue, Normal';font-variant-ligatures:normal;font-variant-caps:normal;font-variant-numeric:normal;font-feature-settings:normal;text-align:start;writing-mode:lr-tb;text-anchor:start;fill:#ffffff"
         id="path920" />
      <path
         d="m 97.701337,234.72964 q 0,-0.49741 0.127,-0.87841 0.137583,-0.39159 0.370417,-0.65617 0.232833,-0.26458 0.53975,-0.40217 0.3175,-0.13758 0.66675,-0.13758 0.34925,0 0.656166,0.13758 0.3175,0.13759 0.55033,0.40217 0.23284,0.26458 0.35984,0.65617 0.13758,0.381 0.13758,0.87841 0,0.49742 -0.13758,0.889 -0.127,0.381 -0.35984,0.64559 -0.23283,0.254 -0.55033,0.39158 -0.306916,0.13758 -0.656166,0.13758 -0.34925,0 -0.66675,-0.13758 -0.306917,-0.13758 -0.53975,-0.39158 -0.232834,-0.26459 -0.370417,-0.64559 -0.127,-0.39158 -0.127,-0.889 z m -0.9525,0 q 0,0.60325 0.169333,1.12184 0.169334,0.51858 0.508,0.91016 0.338667,0.381 0.836084,0.60325 0.497416,0.21167 1.143,0.21167 0.656166,0 1.142996,-0.21167 0.49742,-0.22225 0.83609,-0.60325 0.33866,-0.39158 0.508,-0.91016 0.16933,-0.51859 0.16933,-1.12184 0,-0.60325 -0.16933,-1.12183 -0.16934,-0.52917 -0.508,-0.91017 -0.33867,-0.39158 -0.83609,-0.61383 -0.48683,-0.22225 -1.142996,-0.22225 -0.645584,0 -1.143,0.22225 -0.497417,0.22225 -0.836084,0.61383 -0.338666,0.381 -0.508,0.91017 -0.169333,0.51858 -0.169333,1.12183 z"
         style="font-style:normal;font-variant:normal;font-weight:normal;font-stretch:normal;font-size:10.58333302px;font-family:'Helvetica Neue';-inkscape-font-specification:'Helvetica Neue, Normal';font-variant-ligatures:normal;font-variant-caps:normal;font-variant-numeric:normal;font-feature-settings:normal;text-align:start;writing-mode:lr-tb;text-anchor:start;fill:#ffffff"
         id="path922" />
      <path
         d="m 103.09057,231.98856 v 5.47158 h 0.89958 v -2.43416 q 0,-0.52917 0.10584,-0.93134 0.10583,-0.41275 0.33866,-0.6985 0.23284,-0.28575 0.61384,-0.43391 0.381,-0.14817 0.92075,-0.14817 v -0.9525 q -0.73025,-0.0212 -1.2065,0.29633 -0.47625,0.3175 -0.80434,0.98425 h -0.0212 v -1.15358 z"
         style="font-style:normal;font-variant:normal;font-weight:normal;font-stretch:normal;font-size:10.58333302px;font-family:'Helvetica Neue';-inkscape-font-specification:'Helvetica Neue, Normal';font-variant-ligatures:normal;font-variant-caps:normal;font-variant-numeric:normal;font-feature-settings:normal;text-align:start;writing-mode:lr-tb;text-anchor:start;fill:#ffffff"
         id="path924" />
      <path
         d="m 111.06709,236.99448 v -5.00592 h -0.84666 v 0.78317 h -0.0106 q -0.24341,-0.45509 -0.67733,-0.67734 -0.43392,-0.23283 -0.9525,-0.23283 -0.70908,0 -1.19592,0.27517 -0.48683,0.26458 -0.78316,0.68791 -0.29634,0.41275 -0.42334,0.93134 -0.127,0.508 -0.127,0.99483 0,0.56092 0.14817,1.06892 0.15875,0.49741 0.46567,0.87841 0.30691,0.37042 0.762,0.59267 0.45508,0.22225 1.06891,0.22225 0.52917,0 0.99484,-0.23283 0.47625,-0.24342 0.70908,-0.75142 h 0.0212 v 0.35983 q 0,0.45509 -0.0952,0.83609 -0.0847,0.381 -0.28575,0.64558 -0.20109,0.27517 -0.508,0.42333 -0.30692,0.15875 -0.75142,0.15875 -0.22225,0 -0.46567,-0.0529 -0.24341,-0.0423 -0.45508,-0.14817 -0.20108,-0.10583 -0.34925,-0.27517 -0.13758,-0.16933 -0.14817,-0.41275 h -0.89958 q 0.0212,0.4445 0.23283,0.75142 0.21167,0.30692 0.52917,0.49742 0.32808,0.1905 0.71967,0.27516 0.40216,0.0847 0.78316,0.0847 1.31234,0 1.92617,-0.66675 0.61383,-0.66675 0.61383,-2.01083 z m -2.51883,-0.26459 q -0.4445,0 -0.74083,-0.17991 -0.29634,-0.1905 -0.47625,-0.48684 -0.17992,-0.30691 -0.254,-0.67733 -0.0741,-0.37042 -0.0741,-0.74083 0,-0.39159 0.0847,-0.75142 0.0952,-0.35983 0.28575,-0.635 0.20108,-0.27517 0.508,-0.43392 0.30692,-0.16933 0.74083,-0.16933 0.42334,0 0.71967,0.16933 0.29633,0.16934 0.47625,0.45509 0.1905,0.27516 0.27517,0.62441 0.0847,0.34925 0.0847,0.70909 0,0.381 -0.0952,0.762 -0.0847,0.381 -0.27516,0.68791 -0.1905,0.29634 -0.508,0.48684 -0.30692,0.17991 -0.75142,0.17991 z"
         style="font-style:normal;font-variant:normal;font-weight:normal;font-stretch:normal;font-size:10.58333302px;font-family:'Helvetica Neue';-inkscape-font-specification:'Helvetica Neue, Normal';font-variant-ligatures:normal;font-variant-caps:normal;font-variant-numeric:normal;font-feature-settings:normal;text-align:start;writing-mode:lr-tb;text-anchor:start;fill:#ffffff"
         id="path926" />
      <path
         d="m 117.27124,237.43898 q -0.23283,0.13758 -0.64558,0.13758 -0.34925,0 -0.56092,-0.1905 -0.20108,-0.20108 -0.20108,-0.64558 -0.37042,0.4445 -0.86783,0.64558 -0.48684,0.1905 -1.05834,0.1905 -0.37041,0 -0.70908,-0.0847 -0.32808,-0.0847 -0.5715,-0.26458 -0.24342,-0.17992 -0.39158,-0.46567 -0.13759,-0.29633 -0.13759,-0.70908 0,-0.46567 0.15875,-0.762 0.15875,-0.29633 0.41275,-0.47625 0.26459,-0.1905 0.59267,-0.28575 0.33867,-0.0952 0.68792,-0.15875 0.37041,-0.0741 0.6985,-0.10583 0.33866,-0.0423 0.59266,-0.10584 0.254,-0.0741 0.40217,-0.20108 0.14817,-0.13758 0.14817,-0.39158 0,-0.29634 -0.11642,-0.47625 -0.10583,-0.17992 -0.28575,-0.27517 -0.16933,-0.0953 -0.39158,-0.127 -0.21167,-0.0318 -0.42334,-0.0318 -0.5715,0 -0.9525,0.22225 -0.381,0.21167 -0.41275,0.81492 h -0.89958 q 0.0212,-0.508 0.21167,-0.85725 0.1905,-0.34925 0.508,-0.56092 0.3175,-0.22225 0.71966,-0.3175 0.41275,-0.0952 0.87842,-0.0952 0.37042,0 0.73025,0.0529 0.37042,0.0529 0.66675,0.22225 0.29633,0.15875 0.47625,0.45508 0.17992,0.29633 0.17992,0.77258 v 2.81517 q 0,0.3175 0.0318,0.46567 0.0423,0.14816 0.254,0.14816 0.11641,0 0.27516,-0.0529 z m -1.4605,-2.80459 q -0.16933,0.127 -0.4445,0.1905 -0.27516,0.0529 -0.58208,0.0952 -0.29633,0.0317 -0.60325,0.0847 -0.30692,0.0423 -0.55033,0.14817 -0.24342,0.10583 -0.40217,0.30691 -0.14817,0.1905 -0.14817,0.52917 0,0.22225 0.0847,0.381 0.0952,0.14817 0.23283,0.24342 0.14817,0.0952 0.33867,0.13758 0.1905,0.0423 0.40217,0.0423 0.4445,0 0.762,-0.11641 0.3175,-0.127 0.51858,-0.30692 0.20108,-0.1905 0.29633,-0.40217 0.0952,-0.22225 0.0952,-0.41275 z"
         style="font-style:normal;font-variant:normal;font-weight:normal;font-stretch:normal;font-size:10.58333302px;font-family:'Helvetica Neue';-inkscape-font-specification:'Helvetica Neue, Normal';font-variant-ligatures:normal;font-variant-caps:normal;font-variant-numeric:normal;font-feature-settings:normal;text-align:start;writing-mode:lr-tb;text-anchor:start;fill:#ffffff"
         id="path928" />
      <path
         d="m 118.10849,231.98856 v 5.47158 h 0.89958 v -3.09033 q 0,-0.37042 0.0952,-0.67733 0.10583,-0.3175 0.30692,-0.55034 0.20108,-0.23283 0.49741,-0.35983 0.30692,-0.127 0.71967,-0.127 0.51858,0 0.81492,0.29633 0.29633,0.29634 0.29633,0.80434 v 3.70416 h 0.89958 v -3.59833 q 0,-0.4445 -0.0952,-0.80433 -0.0847,-0.37042 -0.30691,-0.635 -0.22225,-0.26459 -0.58209,-0.41275 -0.35983,-0.14817 -0.89958,-0.14817 -1.21708,0 -1.778,0.99483 h -0.0212 v -0.86783 z"
         style="font-style:normal;font-variant:normal;font-weight:normal;font-stretch:normal;font-size:10.58333302px;font-family:'Helvetica Neue';-inkscape-font-specification:'Helvetica Neue, Normal';font-variant-ligatures:normal;font-variant-caps:normal;font-variant-numeric:normal;font-feature-settings:normal;text-align:start;writing-mode:lr-tb;text-anchor:start;fill:#ffffff"
         id="path930" />
      <path
         d="m 124.9521,231.00431 v -1.10067 h -0.89958 v 1.10067 z m -0.89958,0.98425 v 5.47158 h 0.89958 v -5.47158 z"
         style="font-style:normal;font-variant:normal;font-weight:normal;font-stretch:normal;font-size:10.58333302px;font-family:'Helvetica Neue';-inkscape-font-specification:'Helvetica Neue, Normal';font-variant-ligatures:normal;font-variant-caps:normal;font-variant-numeric:normal;font-feature-settings:normal;text-align:start;writing-mode:lr-tb;text-anchor:start;fill:#ffffff"
         id="path932" />
      <path
         d="m 126.90638,235.73506 h -0.89958 q 0.0212,0.508 0.21166,0.86783 0.1905,0.34925 0.508,0.5715 0.3175,0.21167 0.73025,0.30692 0.41275,0.0952 0.86784,0.0952 0.41275,0 0.8255,-0.0847 0.42333,-0.0741 0.75141,-0.27516 0.33867,-0.20109 0.53975,-0.52917 0.21167,-0.32808 0.21167,-0.8255 0,-0.39158 -0.15875,-0.65617 -0.14817,-0.26458 -0.40217,-0.43391 -0.24341,-0.17992 -0.5715,-0.28575 -0.3175,-0.10584 -0.65616,-0.17992 -0.3175,-0.0741 -0.635,-0.13758 -0.3175,-0.0741 -0.5715,-0.16934 -0.254,-0.10583 -0.42334,-0.254 -0.15875,-0.15875 -0.15875,-0.39158 0,-0.21167 0.10584,-0.33867 0.10583,-0.13758 0.27516,-0.21166 0.16934,-0.0847 0.37042,-0.11642 0.21167,-0.0318 0.41275,-0.0318 0.22225,0 0.43392,0.0529 0.22225,0.0423 0.40216,0.14816 0.17992,0.10584 0.29634,0.28575 0.11641,0.16934 0.13758,0.43392 h 0.89958 q -0.0317,-0.49742 -0.21166,-0.8255 -0.17992,-0.33867 -0.48684,-0.52917 -0.29633,-0.20108 -0.68791,-0.27516 -0.39159,-0.0847 -0.85725,-0.0847 -0.35984,0 -0.73025,0.0952 -0.35984,0.0847 -0.65617,0.27517 -0.28575,0.17991 -0.47625,0.47625 -0.17992,0.29633 -0.17992,0.70908 0,0.52917 0.26459,0.8255 0.26458,0.29633 0.65616,0.46567 0.40217,0.15875 0.86784,0.254 0.46566,0.0847 0.85725,0.20108 0.40216,0.10583 0.66675,0.28575 0.26458,0.17992 0.26458,0.52917 0,0.254 -0.127,0.42333 -0.127,0.15875 -0.32808,0.24342 -0.1905,0.0847 -0.42334,0.11641 -0.23283,0.0317 -0.4445,0.0317 -0.27516,0 -0.53975,-0.0529 -0.254,-0.0529 -0.46566,-0.16934 -0.20109,-0.127 -0.32809,-0.32808 -0.127,-0.21167 -0.13758,-0.508 z"
         style="font-style:normal;font-variant:normal;font-weight:normal;font-stretch:normal;font-size:10.58333302px;font-family:'Helvetica Neue';-inkscape-font-specification:'Helvetica Neue, Normal';font-variant-ligatures:normal;font-variant-caps:normal;font-variant-numeric:normal;font-feature-settings:normal;text-align:start;writing-mode:lr-tb;text-anchor:start;fill:#ffffff"
         id="path934" />
      <path
         d="m 135.44713,234.20048 h -3.14325 q 0.0212,-0.3175 0.13758,-0.59267 0.11642,-0.28575 0.3175,-0.49742 0.20108,-0.21166 0.47625,-0.32808 0.28575,-0.127 0.635,-0.127 0.33867,0 0.61383,0.127 0.28575,0.11642 0.48684,0.32808 0.21166,0.20109 0.32808,0.48684 0.127,0.28575 0.14817,0.60325 z m 0.86783,1.524 h -0.889 q -0.11642,0.53975 -0.48683,0.80433 -0.35984,0.26458 -0.93134,0.26458 -0.4445,0 -0.77258,-0.14816 -0.32808,-0.14817 -0.53975,-0.39159 -0.21167,-0.254 -0.30692,-0.5715 -0.0952,-0.32808 -0.0847,-0.68791 h 4.09575 q 0.0212,-0.49742 -0.0952,-1.04775 -0.10584,-0.55034 -0.40217,-1.016 -0.28575,-0.46567 -0.77258,-0.762 -0.47625,-0.30692 -1.2065,-0.30692 -0.56092,0 -1.03717,0.21167 -0.46567,0.21166 -0.81492,0.59266 -0.33866,0.381 -0.52916,0.89959 -0.1905,0.51858 -0.1905,1.143 0.0212,0.62441 0.17991,1.15358 0.16934,0.52917 0.49742,0.91017 0.32808,0.381 0.80433,0.59266 0.48684,0.21167 1.143,0.21167 0.93134,0 1.54517,-0.46567 0.61383,-0.46566 0.79375,-1.38641 z"
         style="font-style:normal;font-variant:normal;font-weight:normal;font-stretch:normal;font-size:10.58333302px;font-family:'Helvetica Neue';-inkscape-font-specification:'Helvetica Neue, Normal';font-variant-ligatures:normal;font-variant-caps:normal;font-variant-numeric:normal;font-feature-settings:normal;text-align:start;writing-mode:lr-tb;text-anchor:start;fill:#ffffff"
         id="path936" />
      <path
         d="m 137.98829,234.77198 q 0,-0.40217 0.0847,-0.78317 0.0847,-0.381 0.27517,-0.67733 0.1905,-0.29634 0.508,-0.47625 0.3175,-0.17992 0.77258,-0.17992 0.46567,0 0.79375,0.17992 0.32809,0.16933 0.52917,0.45508 0.21167,0.28575 0.30692,0.66675 0.0952,0.37042 0.0952,0.77258 0,0.381 -0.0952,0.75142 -0.0847,0.37042 -0.28575,0.66675 -0.20109,0.28575 -0.51859,0.46567 -0.3175,0.17991 -0.77258,0.17991 -0.43392,0 -0.762,-0.16933 -0.3175,-0.16933 -0.52917,-0.45508 -0.20108,-0.28575 -0.30691,-0.64559 -0.0952,-0.37041 -0.0952,-0.75141 z m 4.23333,2.68816 v -7.5565 h -0.89958 v 2.81517 h -0.0212 q -0.14817,-0.24342 -0.37042,-0.40217 -0.21166,-0.16933 -0.45508,-0.26458 -0.24342,-0.10583 -0.48683,-0.14817 -0.24342,-0.0423 -0.45509,-0.0423 -0.62441,0 -1.10066,0.23283 -0.46567,0.22225 -0.78317,0.61384 -0.30692,0.381 -0.46567,0.89958 -0.14816,0.51858 -0.14816,1.10067 0,0.58208 0.15875,1.10066 0.15875,0.51859 0.46566,0.91017 0.3175,0.39158 0.78317,0.62442 0.47625,0.23283 1.11125,0.23283 0.5715,0 1.04775,-0.20108 0.47625,-0.20109 0.6985,-0.65617 h 0.0212 v 0.74083 z"
         style="font-style:normal;font-variant:normal;font-weight:normal;font-stretch:normal;font-size:10.58333302px;font-family:'Helvetica Neue';-inkscape-font-specification:'Helvetica Neue, Normal';font-variant-ligatures:normal;font-variant-caps:normal;font-variant-numeric:normal;font-feature-settings:normal;text-align:start;writing-mode:lr-tb;text-anchor:start;fill:#ffffff"
         id="path938" />
      <path
         d="m 148.41386,230.75031 v 6.70983 h 1.00542 v -6.70983 h 2.51883 v -0.84667 h -6.04308 v 0.84667 z"
         style="font-style:normal;font-variant:normal;font-weight:normal;font-stretch:normal;font-size:10.58333302px;font-family:'Helvetica Neue';-inkscape-font-specification:'Helvetica Neue, Normal';font-variant-ligatures:normal;font-variant-caps:normal;font-variant-numeric:normal;font-feature-settings:normal;text-align:start;writing-mode:lr-tb;text-anchor:start;fill:#ffffff"
         id="path940" />
      <path
         d="m 152.77651,229.90364 v 7.5565 h 5.24934 v -0.84666 h -4.24392 v -2.61409 h 3.92642 v -0.84666 h -3.92642 v -2.40242 h 4.21217 v -0.84667 z"
         style="font-style:normal;font-variant:normal;font-weight:normal;font-stretch:normal;font-size:10.58333302px;font-family:'Helvetica Neue';-inkscape-font-specification:'Helvetica Neue, Normal';font-variant-ligatures:normal;font-variant-caps:normal;font-variant-numeric:normal;font-feature-settings:normal;text-align:start;writing-mode:lr-tb;text-anchor:start;fill:#ffffff"
         id="path942" />
      <path
         d="m 160.25181,236.61348 v -5.86317 h 1.69333 q 0.6985,0 1.17475,0.20108 0.47625,0.1905 0.77258,0.5715 0.30692,0.37042 0.43392,0.91017 0.13758,0.52917 0.13758,1.2065 0,0.6985 -0.14816,1.19592 -0.13759,0.48683 -0.35984,0.81491 -0.22225,0.32809 -0.508,0.51859 -0.27516,0.1905 -0.56091,0.29633 -0.28575,0.0953 -0.53975,0.127 -0.254,0.0212 -0.42334,0.0212 z m -1.00542,-6.70984 v 7.5565 h 2.59292 q 0.94191,0 1.62983,-0.26458 0.68792,-0.26458 1.13242,-0.762 0.4445,-0.508 0.65616,-1.23825 0.21167,-0.74083 0.21167,-1.69333 0,-1.82034 -0.94192,-2.70934 -0.94191,-0.889 -2.68816,-0.889 z"
         style="font-style:normal;font-variant:normal;font-weight:normal;font-stretch:normal;font-size:10.58333302px;font-family:'Helvetica Neue';-inkscape-font-specification:'Helvetica Neue, Normal';font-variant-ligatures:normal;font-variant-caps:normal;font-variant-numeric:normal;font-feature-settings:normal;text-align:start;writing-mode:lr-tb;text-anchor:start;fill:#ffffff"
         id="path944" />
      <path
         d="m 173.27427,234.20048 h -3.14325 q 0.0212,-0.3175 0.13759,-0.59267 0.11641,-0.28575 0.3175,-0.49742 0.20108,-0.21166 0.47625,-0.32808 0.28575,-0.127 0.635,-0.127 0.33866,0 0.61383,0.127 0.28575,0.11642 0.48683,0.32808 0.21167,0.20109 0.32809,0.48684 0.127,0.28575 0.14816,0.60325 z m 0.86784,1.524 h -0.889 q -0.11642,0.53975 -0.48684,0.80433 -0.35983,0.26458 -0.93133,0.26458 -0.4445,0 -0.77258,-0.14816 -0.32809,-0.14817 -0.53975,-0.39159 -0.21167,-0.254 -0.30692,-0.5715 -0.0952,-0.32808 -0.0847,-0.68791 h 4.09575 q 0.0212,-0.49742 -0.0952,-1.04775 -0.10583,-0.55034 -0.40216,-1.016 -0.28575,-0.46567 -0.77259,-0.762 -0.47625,-0.30692 -1.2065,-0.30692 -0.56091,0 -1.03716,0.21167 -0.46567,0.21166 -0.81492,0.59266 -0.33867,0.381 -0.52917,0.89959 -0.1905,0.51858 -0.1905,1.143 0.0212,0.62441 0.17992,1.15358 0.16933,0.52917 0.49742,0.91017 0.32808,0.381 0.80433,0.59266 0.48683,0.21167 1.143,0.21167 0.93133,0 1.54517,-0.46567 0.61383,-0.46566 0.79375,-1.38641 z"
         style="font-style:normal;font-variant:normal;font-weight:normal;font-stretch:normal;font-size:10.58333302px;font-family:'Helvetica Neue';-inkscape-font-specification:'Helvetica Neue, Normal';font-variant-ligatures:normal;font-variant-caps:normal;font-variant-numeric:normal;font-feature-settings:normal;text-align:start;writing-mode:lr-tb;text-anchor:start;fill:#ffffff"
         id="path946" />
      <path
         d="m 177.62518,237.46014 2.00025,-5.47158 h -0.94192 l -1.49225,4.56142 h -0.0212 l -1.53458,-4.56142 h -1.00542 l 2.032,5.47158 z"
         style="font-style:normal;font-variant:normal;font-weight:normal;font-stretch:normal;font-size:10.58333302px;font-family:'Helvetica Neue';-inkscape-font-specification:'Helvetica Neue, Normal';font-variant-ligatures:normal;font-variant-caps:normal;font-variant-numeric:normal;font-feature-settings:normal;text-align:start;writing-mode:lr-tb;text-anchor:start;fill:#ffffff"
         id="path948" />
      <path
         d="m 184.25035,234.20048 h -3.14325 q 0.0212,-0.3175 0.13758,-0.59267 0.11642,-0.28575 0.3175,-0.49742 0.20109,-0.21166 0.47625,-0.32808 0.28575,-0.127 0.635,-0.127 0.33867,0 0.61384,0.127 0.28575,0.11642 0.48683,0.32808 0.21167,0.20109 0.32808,0.48684 0.127,0.28575 0.14817,0.60325 z m 0.86783,1.524 h -0.889 q -0.11641,0.53975 -0.48683,0.80433 -0.35983,0.26458 -0.93133,0.26458 -0.4445,0 -0.77259,-0.14816 -0.32808,-0.14817 -0.53975,-0.39159 -0.21166,-0.254 -0.30691,-0.5715 -0.0952,-0.32808 -0.0847,-0.68791 h 4.09575 q 0.0212,-0.49742 -0.0953,-1.04775 -0.10583,-0.55034 -0.40217,-1.016 -0.28575,-0.46567 -0.77258,-0.762 -0.47625,-0.30692 -1.2065,-0.30692 -0.56092,0 -1.03717,0.21167 -0.46566,0.21166 -0.81491,0.59266 -0.33867,0.381 -0.52917,0.89959 -0.1905,0.51858 -0.1905,1.143 0.0212,0.62441 0.17992,1.15358 0.16933,0.52917 0.49741,0.91017 0.32809,0.381 0.80434,0.59266 0.48683,0.21167 1.143,0.21167 0.93133,0 1.54516,-0.46567 0.61384,-0.46566 0.79375,-1.38641 z"
         style="font-style:normal;font-variant:normal;font-weight:normal;font-stretch:normal;font-size:10.58333302px;font-family:'Helvetica Neue';-inkscape-font-specification:'Helvetica Neue, Normal';font-variant-ligatures:normal;font-variant-caps:normal;font-variant-numeric:normal;font-feature-settings:normal;text-align:start;writing-mode:lr-tb;text-anchor:start;fill:#ffffff"
         id="path950" />
      <path
         d="m 186.13533,231.98856 v 5.47158 h 0.89959 v -3.09033 q 0,-0.37042 0.0952,-0.67733 0.10583,-0.3175 0.30691,-0.55034 0.20109,-0.23283 0.49742,-0.35983 0.30692,-0.127 0.71967,-0.127 0.51858,0 0.81491,0.29633 0.29634,0.29634 0.29634,0.80434 v 3.70416 h 0.89958 v -3.59833 q 0,-0.4445 -0.0952,-0.80433 -0.0847,-0.37042 -0.30692,-0.635 -0.22225,-0.26459 -0.58208,-0.41275 -0.35983,-0.14817 -0.89958,-0.14817 -1.21709,0 -1.778,0.99483 h -0.0212 v -0.86783 z"
         style="font-style:normal;font-variant:normal;font-weight:normal;font-stretch:normal;font-size:10.58333302px;font-family:'Helvetica Neue';-inkscape-font-specification:'Helvetica Neue, Normal';font-variant-ligatures:normal;font-variant-caps:normal;font-variant-numeric:normal;font-feature-settings:normal;text-align:start;writing-mode:lr-tb;text-anchor:start;fill:#ffffff"
         id="path952" />
      <path
         d="m 193.27528,231.98856 v -1.64042 h -0.89958 v 1.64042 h -0.93134 v 0.79375 h 0.93134 v 3.48192 q 0,0.381 0.0741,0.61383 0.0741,0.23283 0.22225,0.35983 0.15875,0.127 0.40217,0.17992 0.254,0.0423 0.60325,0.0423 h 0.68791 v -0.79375 h -0.41275 q -0.21166,0 -0.34925,-0.0106 -0.127,-0.0212 -0.20108,-0.0741 -0.0741,-0.0529 -0.10583,-0.14817 -0.0212,-0.0952 -0.0212,-0.254 v -3.39725 h 1.09008 v -0.79375 z"
         style="font-style:normal;font-variant:normal;font-weight:normal;font-stretch:normal;font-size:10.58333302px;font-family:'Helvetica Neue';-inkscape-font-specification:'Helvetica Neue, Normal';font-variant-ligatures:normal;font-variant-caps:normal;font-variant-numeric:normal;font-feature-settings:normal;text-align:start;writing-mode:lr-tb;text-anchor:start;fill:#ffffff"
         id="path954" />
    </g>
  </g>
</svg>
