<?xml version="1.0" encoding="UTF-8" standalone="no"?>
<svg width="101px" height="23px" viewBox="0 0 101 23" version="1.1" xmlns="http://www.w3.org/2000/svg" xmlns:xlink="http://www.w3.org/1999/xlink">
    <!-- Generator: Sketch 40.1 (33804) - http://www.bohemiancoding.com/sketch -->
    <title>uxtalks</title>
    <desc>Created with Sketch.</desc>
    <defs>
        <linearGradient x1="-3.22142857%" y1="50.11875%" x2="571.997059%" y2="50.11875%" id="linearGradient-1">
            <stop stop-color="#4FC4CD" offset="0%"></stop>
            <stop stop-color="#943493" offset="100%"></stop>
        </linearGradient>
        <linearGradient x1="-1707.95229%" y1="49.5832797%" x2="3315.97431%" y2="49.5832797%" id="linearGradient-2">
            <stop stop-color="#4FC4CD" offset="0%"></stop>
            <stop stop-color="#943493" offset="100%"></stop>
        </linearGradient>
        <linearGradient x1="-1358.39172%" y1="49.4423729%" x2="2418.21517%" y2="49.4423729%" id="linearGradient-3">
            <stop stop-color="#4FC4CD" offset="0%"></stop>
            <stop stop-color="#943493" offset="100%"></stop>
        </linearGradient>
        <linearGradient x1="-260.356321%" y1="50.0968768%" x2="730.652059%" y2="50.0968768%" id="linearGradient-4">
            <stop stop-color="#4FC4CD" offset="0%"></stop>
            <stop stop-color="#943493" offset="100%"></stop>
        </linearGradient>
        <linearGradient x1="-275.372218%" y1="49.9099074%" x2="1078.16147%" y2="49.9099074%" id="linearGradient-5">
            <stop stop-color="#4FC4CD" offset="0%"></stop>
            <stop stop-color="#943493" offset="100%"></stop>
        </linearGradient>
        <linearGradient x1="-274.38353%" y1="49.6694656%" x2="1079.15016%" y2="49.6694656%" id="linearGradient-6">
            <stop stop-color="#4FC4CD" offset="0%"></stop>
            <stop stop-color="#943493" offset="100%"></stop>
        </linearGradient>
        <linearGradient x1="-282.780569%" y1="50.0508897%" x2="366.044076%" y2="50.0508897%" id="linearGradient-7">
            <stop stop-color="#4FC4CD" offset="0%"></stop>
            <stop stop-color="#943493" offset="100%"></stop>
        </linearGradient>
        <linearGradient x1="-499.145513%" y1="50.3812207%" x2="378.43141%" y2="50.3812207%" id="linearGradient-8">
            <stop stop-color="#4FC4CD" offset="0%"></stop>
            <stop stop-color="#943493" offset="100%"></stop>
        </linearGradient>
        <linearGradient x1="-1564.55079%" y1="50.0424561%" x2="608.496825%" y2="50.0424561%" id="linearGradient-9">
            <stop stop-color="#4FC4CD" offset="0%"></stop>
            <stop stop-color="#943493" offset="100%"></stop>
        </linearGradient>
        <linearGradient x1="-681.43481%" y1="50.0508897%" x2="185.033544%" y2="50.0508897%" id="linearGradient-10">
            <stop stop-color="#4FC4CD" offset="0%"></stop>
            <stop stop-color="#943493" offset="100%"></stop>
        </linearGradient>
        <linearGradient x1="-850.113605%" y1="49.9125581%" x2="81.192517%" y2="49.9125581%" id="linearGradient-11">
            <stop stop-color="#4FC4CD" offset="0%"></stop>
            <stop stop-color="#943493" offset="100%"></stop>
        </linearGradient>
        <linearGradient x1="-1127.53696%" y1="50.0909361%" x2="1848.59348%" y2="50.0909361%" id="linearGradient-12">
            <stop stop-color="#4FC4CD" offset="0%"></stop>
            <stop stop-color="#943493" offset="100%"></stop>
        </linearGradient>
    </defs>
    <g id="Page-1" stroke="none" stroke-width="1" fill="none" fill-rule="evenodd">
        <g id="UX-talks" transform="translate(-120.000000, -1485.000000)">
            <g id="nav-event" transform="translate(120.000000, 1479.000000)">
                <g id="uxtalks" transform="translate(0.000000, 6.000000)">
                    <g id="Layer_1">
                        <g id="Group">
                            <path d="M9.01785714,22.0354839 C4.25642857,22.0354839 0.432857143,18.1032258 0.432857143,13.2064516 L0.432857143,2.37419355 C0.432857143,1.40967742 1.15428571,0.667741935 2.09214286,0.667741935 C2.95785714,0.667741935 3.75142857,1.40967742 3.75142857,2.37419355 L3.75142857,13.2064516 C3.75142857,16.1741935 6.13214286,18.6225806 9.01785714,18.6225806 C11.9757143,18.6225806 14.2842857,16.1741935 14.2842857,13.2064516 L14.2842857,2.4483871 C14.2842857,1.48387097 15.0057143,0.741935484 15.9435714,0.741935484 C16.8814286,0.741935484 17.6028571,1.48387097 17.6028571,2.4483871 L17.6028571,13.2064516 C17.6028571,18.1032258 13.7792857,22.0354839 9.01785714,22.0354839 L9.01785714,22.0354839 Z" id="Shape" fill="url(#linearGradient-1)"></path>
                            <path d="M34.34,14.1709677 C35.0614286,13.4290323 35.4221429,12.4645161 35.4221429,11.4258065 C35.4221429,10.3870968 35.0614286,9.42258065 34.34,8.68064516 C34.1235714,8.45806452 33.835,8.45806452 33.6185714,8.68064516 C33.4021429,8.90322581 33.4021429,9.2 33.6185714,9.42258065 L33.6185714,9.42258065 C34.1235714,9.94193548 34.4121429,10.683871 34.4121429,11.4258065 C34.4121429,12.1677419 34.1235714,12.9096774 33.6185714,13.4290323 C33.4021429,13.6516129 33.4021429,13.9483871 33.6185714,14.1709677 C33.7628571,14.3193548 34.1235714,14.3193548 34.34,14.1709677 L34.34,14.1709677 Z" id="Shape" fill="url(#linearGradient-2)"></path>
                            <path d="M35.9271429,15.8032258 C36.0714286,15.8032258 36.2157143,15.7290323 36.2878571,15.6548387 C37.37,14.5419355 38.0192857,12.983871 38.0192857,11.4258065 C38.0192857,9.79354839 37.37,8.30967742 36.2878571,7.19677419 C36.2157143,7.12258065 36.0714286,7.0483871 35.9271429,7.0483871 C35.7828571,7.0483871 35.6385714,7.12258065 35.5664286,7.19677419 C35.35,7.41935484 35.35,7.71612903 35.5664286,7.93870968 C36.5042857,8.90322581 37.0092857,10.0903226 37.0092857,11.4258065 C37.0092857,12.7612903 36.5042857,13.9483871 35.5664286,14.9129032 C35.4942857,14.9870968 35.4221429,15.1354839 35.4221429,15.283871 C35.4221429,15.4322581 35.4942857,15.5806452 35.5664286,15.6548387 C35.6385714,15.7290323 35.7828571,15.8032258 35.9271429,15.8032258 L35.9271429,15.8032258 Z" id="Shape" fill="url(#linearGradient-3)"></path>
                            <path d="M29.8671429,11.3516129 L35.4942857,3.48709677 C35.9992857,2.74516129 35.855,1.70645161 35.1335714,1.18709677 C34.4121429,0.593548387 33.4021429,0.741935484 32.825,1.55806452 L28.1357143,8.16129032 L28.1357143,8.16129032 L28.1357143,8.16129032 L27.8471429,8.53225806 L27.8471429,8.53225806 L25.8271429,11.2774194 L27.8471429,14.1709677 L27.8471429,14.1709677 L32.825,21.2193548 C33.1857143,21.6645161 33.6185714,21.8870968 34.1957143,21.8870968 C34.5564286,21.8870968 34.845,21.7387097 35.1335714,21.516129 C35.855,20.9967742 35.9992857,19.9580645 35.4942857,19.216129 L29.8671429,11.3516129 L29.8671429,11.3516129 Z" id="Shape" fill="url(#linearGradient-4)"></path>
                            <g transform="translate(19.478571, 0.741935)" id="Shape">
                                <path d="M7.79142857,6.97419355 L3.39071429,0.816129032 C2.88571429,-1.96578864e-13 1.87571429,-0.148387097 1.15428571,0.44516129 C0.432857143,0.964516129 0.288571429,2.00322581 0.793571429,2.74516129 L5.77142857,9.71935484 L7.79142857,6.97419355 L7.79142857,6.97419355 Z" fill="url(#linearGradient-5)"></path>
                                <path d="M5.77142857,11.5 L0.721428571,18.5483871 C0.216428571,19.2903226 0.360714286,20.3290323 1.08214286,20.8483871 C1.37071429,21.0709677 1.65928571,21.2193548 2.02,21.2193548 C2.525,21.2193548 3.03,20.9225806 3.31857143,20.5516129 L7.71928571,14.3935484 L5.77142857,11.5 L5.77142857,11.5 Z" fill="url(#linearGradient-6)"></path>
                            </g>
                            <g transform="translate(42.564286, 0.741935)" id="Shape">
                                <polygon fill="url(#linearGradient-7)" points="15.5828571 1.85483871 8.80142857 1.85483871 8.80142857 20.9967742 7.14214286 20.9967742 7.14214286 1.85483871 0.360714286 1.85483871 0.360714286 0.148387097 15.5828571 0.148387097 15.5828571 1.85483871"></polygon>
                                <path d="M23.1578571,10.3129032 C23.1578571,9.79354839 23.0135714,9.27419355 22.7971429,8.90322581 C22.5807143,8.53225806 22.2921429,8.16129032 21.8592857,7.86451613 C21.4985714,7.56774194 20.9935714,7.41935484 20.5607143,7.27096774 C20.0557143,7.12258065 19.5507143,7.0483871 19.0457143,7.0483871 C18.3242857,7.0483871 17.6028571,7.19677419 16.8814286,7.41935484 C16.16,7.64193548 15.655,8.08709677 15.2942857,8.53225806 L14.2121429,7.49354839 C14.7892857,6.82580645 15.5828571,6.30645161 16.4485714,5.93548387 C17.3142857,5.56451613 18.2521429,5.41612903 19.19,5.41612903 C19.9114286,5.41612903 20.5607143,5.49032258 21.2821429,5.71290323 C21.9314286,5.93548387 22.5085714,6.23225806 23.0857143,6.60322581 C23.5907143,6.97419355 24.0235714,7.49354839 24.3121429,8.08709677 C24.6007143,8.68064516 24.745,9.42258065 24.745,10.2387097 L24.745,20.2548387 C22.9414286,20.9225806 20.9935714,21.2193548 19.0457143,21.2193548 L18.685,21.2193548 C17.9635714,21.2193548 17.3142857,21.1451613 16.665,20.9225806 C16.0157143,20.7 15.5107143,20.4032258 15.0057143,20.0322581 C14.5728571,19.6612903 14.14,19.1419355 13.9235714,18.5483871 C13.7071429,17.9548387 13.4907143,17.2870968 13.4907143,16.4709677 C13.4907143,15.5806452 13.635,14.9129032 13.9957143,14.2451613 C14.3564286,13.6516129 14.7892857,13.1322581 15.2942857,12.7612903 C15.7992857,12.3903226 16.4485714,12.0935484 17.0978571,11.9451613 C17.7471429,11.7967742 18.4685714,11.6483871 19.19,11.6483871 C19.9114286,11.6483871 20.5607143,11.7225806 21.21,11.8709677 C21.8592857,12.0193548 22.5085714,12.2419355 23.0857143,12.4645161 L23.0857143,10.3129032 L23.1578571,10.3129032 Z M21.3542857,13.4290323 C20.6328571,13.2806452 19.9835714,13.2064516 19.2621429,13.2064516 C18.685,13.2064516 18.18,13.2806452 17.675,13.3548387 C17.17,13.4290323 16.7371429,13.6516129 16.3764286,13.9483871 C16.0157143,14.2451613 15.655,14.5419355 15.4385714,14.9870968 C15.2221429,15.4322581 15.0778571,15.9516129 15.0778571,16.6193548 C15.0778571,17.8064516 15.4385714,18.6225806 16.0878571,19.0677419 C16.8092857,19.5870968 17.675,19.8096774 18.685,19.8096774 L19.19,19.8096774 C19.7671429,19.8096774 20.3442857,19.8096774 20.9214286,19.7354839 C21.6428571,19.6612903 22.3642857,19.5129032 23.0857143,19.3645161 L23.0857143,13.9483871 C22.6528571,13.8 22.0035714,13.5774194 21.3542857,13.4290323 L21.3542857,13.4290323 Z" fill="url(#linearGradient-8)"></path>
                                <path d="M32.8971429,21.2935484 C31.4542857,21.2935484 30.3,20.8483871 29.5785714,20.0322581 C28.785,19.216129 28.4242857,18.0290323 28.4242857,16.4709677 L28.4242857,0.148387097 L30.0114286,0.148387097 L30.0114286,16.4709677 C30.0114286,17.5096774 30.2278571,18.2516129 30.7328571,18.8451613 C31.1657143,19.3645161 31.9592857,19.6612903 32.9692857,19.6612903 L32.9692857,21.2935484 L32.8971429,21.2935484 Z" fill="url(#linearGradient-9)"></path>
                                <polygon fill="url(#linearGradient-10)" points="36.5764286 20.9967742 34.9892857 20.9967742 34.9892857 0.148387097 36.5764286 0.148387097 36.5764286 13.7258065 44.3678571 5.71290323 46.3878571 5.71290323 39.7507143 12.6129032 46.3157143 20.9967742 44.3678571 20.9967742 38.6685714 13.8 36.5764286 15.9516129 36.5764286 20.9967742"></polygon>
                                <path d="M53.0971429,19.7354839 C53.53,19.7354839 53.8907143,19.6612903 54.3235714,19.5870968 C54.7564286,19.5129032 55.1171429,19.3645161 55.4057143,19.1419355 C55.6942857,18.9193548 55.9828571,18.6225806 56.1271429,18.2516129 C56.2714286,17.8806452 56.4157143,17.4354839 56.4157143,16.916129 C56.4157143,16.3967742 56.3435714,15.9516129 56.1271429,15.6548387 C55.9107143,15.3580645 55.6221429,15.0612903 55.3335714,14.8387097 C54.9728571,14.616129 54.6121429,14.4677419 54.2514286,14.3193548 C53.8185714,14.2451613 53.4578571,14.0967742 53.0971429,14.0225806 C52.52,13.8741935 51.8707143,13.7258065 51.2935714,13.5774194 C50.7164286,13.4290323 50.1392857,13.2064516 49.6342857,12.8354839 C49.1292857,12.5387097 48.7685714,12.0935484 48.4078571,11.6483871 C48.1192857,11.1290323 47.9028571,10.5354839 47.9028571,9.71935484 C47.9028571,8.97741935 48.0471429,8.30967742 48.4078571,7.71612903 C48.7685714,7.19677419 49.1292857,6.7516129 49.6342857,6.38064516 C50.1392857,6.00967742 50.7164286,5.78709677 51.3657143,5.63870968 C52.015,5.49032258 52.5921429,5.41612903 53.1692857,5.41612903 C53.9628571,5.41612903 54.6842857,5.56451613 55.4057143,5.78709677 C56.1271429,6.00967742 56.7764286,6.45483871 57.2814286,6.9 L56.2714286,8.16129032 C55.8385714,7.71612903 55.4057143,7.41935484 54.8285714,7.27096774 C54.3235714,7.12258065 53.7464286,7.0483871 53.1692857,7.0483871 C52.8085714,7.0483871 52.3757143,7.12258065 51.9428571,7.19677419 C51.51,7.27096774 51.0771429,7.41935484 50.7164286,7.64193548 C50.3557143,7.86451613 50.0671429,8.16129032 49.7785714,8.45806452 C49.5621429,8.82903226 49.4178571,9.27419355 49.4178571,9.79354839 C49.4178571,10.3129032 49.5621429,10.7580645 49.8507143,11.0548387 C50.1392857,11.3516129 50.4278571,11.6483871 50.8607143,11.8709677 C51.2214286,12.0935484 51.6542857,12.2419355 52.0871429,12.316129 C52.52,12.3903226 52.9528571,12.5387097 53.3135714,12.6129032 C53.8907143,12.7612903 54.4678571,12.9096774 55.045,13.0580645 C55.6221429,13.2806452 56.1271429,13.5032258 56.56,13.8741935 C56.9928571,14.2451613 57.3535714,14.616129 57.6421429,15.1354839 C57.9307143,15.6548387 58.075,16.2483871 58.075,16.9903226 C58.075,17.7322581 57.9307143,18.4 57.6421429,18.9193548 C57.3535714,19.4387097 56.9928571,19.883871 56.56,20.2548387 C56.1271429,20.6258065 55.55,20.8483871 54.9728571,21.0709677 C54.3957143,21.2193548 53.8185714,21.3677419 53.1692857,21.3677419 L52.9528571,21.3677419 C51.8707143,21.3677419 50.8607143,21.1451613 49.9228571,20.6258065 C48.9128571,20.1064516 48.1192857,19.2903226 47.47,18.2516129 L48.6964286,17.4354839 C49.2735714,18.2516129 49.9228571,18.7709677 50.7164286,19.216129 C51.4378571,19.5129032 52.2314286,19.7354839 53.0971429,19.7354839 L53.0971429,19.7354839 Z" fill="url(#linearGradient-11)"></path>
                            </g>
                            <path d="M40.6164286,11.3516129 C40.6164286,9.0516129 39.7507143,6.9 38.1635714,5.26774194 C38.0914286,5.19354839 37.9471429,5.11935484 37.8028571,5.11935484 C37.6585714,5.11935484 37.5142857,5.19354839 37.4421429,5.26774194 C37.37,5.34193548 37.2978571,5.49032258 37.2978571,5.63870968 C37.2978571,5.78709677 37.37,5.93548387 37.4421429,6.00967742 C38.8128571,7.41935484 39.6064286,9.3483871 39.6064286,11.3516129 C39.6064286,13.3548387 38.8128571,15.283871 37.4421429,16.6935484 C37.37,16.7677419 37.2978571,16.916129 37.2978571,17.0645161 C37.2978571,17.2129032 37.37,17.3612903 37.4421429,17.4354839 C37.6585714,17.6580645 38.0192857,17.6580645 38.1635714,17.4354839 C39.7507143,15.8032258 40.6164286,13.6516129 40.6164286,11.3516129 L40.6164286,11.3516129 Z" id="Shape" fill="url(#linearGradient-12)"></path>
                        </g>
                    </g>
                </g>
            </g>
        </g>
    </g>
</svg>