<?xml version="1.0" encoding="UTF-8" standalone="no"?>
<svg width="16px" height="9px" viewBox="0 0 16 9" version="1.1" xmlns="http://www.w3.org/2000/svg" xmlns:xlink="http://www.w3.org/1999/xlink">
    <!-- Generator: Sketch 40.1 (33804) - http://www.bohemiancoding.com/sketch -->
    <title>Group 2</title>
    <desc>Created with Sketch.</desc>
    <defs>
        <linearGradient x1="205.866551%" y1="-46.1967444%" x2="50%" y2="126.480607%" id="linearGradient-1">
            <stop stop-color="#00DBDE" offset="0%"></stop>
            <stop stop-color="#943096" offset="100%"></stop>
        </linearGradient>
    </defs>
    <g id="Page-1" stroke="none" stroke-width="1" fill="none" fill-rule="evenodd">
        <g id="UX-talks" transform="translate(-288.000000, -1481.000000)" fill="url(#linearGradient-1)">
            <g id="nav-event" transform="translate(120.000000, 1479.000000)">
                <g id="Group-2" transform="translate(176.500000, 6.500000) rotate(-90.000000) translate(-176.500000, -6.500000) translate(172.000000, -2.000000)">
                    <path d="M1.2,11.7903226 C2.08888889,10.8763441 2.53333333,9.68817204 2.53333333,8.40860215 C2.53333333,7.12903226 2.08888889,5.94086022 1.2,5.02688172 C0.933333333,4.75268817 0.577777778,4.75268817 0.311111111,5.02688172 C0.0444444444,5.30107527 0.0444444444,5.66666667 0.311111111,5.94086022 L0.311111111,5.94086022 C0.933333333,6.58064516 1.28888889,7.49462366 1.28888889,8.40860215 C1.28888889,9.32258065 0.933333333,10.2365591 0.311111111,10.8763441 C0.0444444444,11.1505376 0.0444444444,11.516129 0.311111111,11.7903226 C0.488888889,11.9731183 0.933333333,11.9731183 1.2,11.7903226 L1.2,11.7903226 Z" id="Shape"></path>
                    <path d="M3.15555556,13.8010753 C3.33333333,13.8010753 3.51111111,13.7096774 3.6,13.6182796 C4.93333333,12.2473118 5.73333333,10.327957 5.73333333,8.40860215 C5.73333333,6.39784946 4.93333333,4.56989247 3.6,3.19892473 C3.51111111,3.10752688 3.33333333,3.01612903 3.15555556,3.01612903 C2.97777778,3.01612903 2.8,3.10752688 2.71111111,3.19892473 C2.44444444,3.47311828 2.44444444,3.83870968 2.71111111,4.11290323 C3.86666667,5.30107527 4.48888889,6.76344086 4.48888889,8.40860215 C4.48888889,10.0537634 3.86666667,11.516129 2.71111111,12.7043011 C2.62222222,12.7956989 2.53333333,12.9784946 2.53333333,13.1612903 C2.53333333,13.344086 2.62222222,13.5268817 2.71111111,13.6182796 C2.8,13.7096774 2.97777778,13.8010753 3.15555556,13.8010753 L3.15555556,13.8010753 Z" id="Shape"></path>
                    <path d="M8.93333333,8.3172043 C8.93333333,5.48387097 7.86666667,2.83333333 5.91111111,0.822580645 C5.82222222,0.731182796 5.64444444,0.639784946 5.46666667,0.639784946 C5.28888889,0.639784946 5.11111111,0.731182796 5.02222222,0.822580645 C4.93333333,0.913978495 4.84444444,1.09677419 4.84444444,1.27956989 C4.84444444,1.46236559 4.93333333,1.64516129 5.02222222,1.73655914 C6.71111111,3.47311828 7.68888889,5.84946237 7.68888889,8.3172043 C7.68888889,10.7849462 6.71111111,13.1612903 5.02222222,14.8978495 C4.93333333,14.9892473 4.84444444,15.172043 4.84444444,15.3548387 C4.84444444,15.5376344 4.93333333,15.7204301 5.02222222,15.811828 C5.28888889,16.0860215 5.73333333,16.0860215 5.91111111,15.811828 C7.86666667,13.8010753 8.93333333,11.1505376 8.93333333,8.3172043 L8.93333333,8.3172043 Z" id="Shape"></path>
                </g>
            </g>
        </g>
    </g>
</svg>